<svg xmlns="http://www.w3.org/2000/svg" viewBox="0 0 100 100">
  <defs>
    <linearGradient id="emeraldGrad" x1="0%" y1="0%" x2="100%" y2="100%">
      <stop offset="0%" stop-color="#34d399" />
      <stop offset="50%" stop-color="#059669" />
      <stop offset="100%" stop-color="#047857" />
    </linearGradient>
  </defs>
  <!-- Vault / Growth Box -->
  <rect x="18" y="22" width="64" height="60" rx="8" fill="url(#emeraldGrad)" stroke="#064e3b" stroke-width="2.5" />
  <!-- Lock dial or tree leaves showing growth/vesting -->
  <circle cx="50" cy="52" r="16" fill="#ffffff" stroke="#047857" stroke-width="2" />
  <!-- Growth leaf/plant motif inside lock dial -->
  <path d="M50,42 C50,42 55,47 55,52 C55,57 50,62 50,62 C50,62 45,57 45,52 C45,47 50,42 50,42 Z" fill="#059669" />
  <path d="M50,45 C50,45 52,48 52,52 C52,56 50,59 50,59" fill="none" stroke="#ffffff" stroke-width="1.5" />
  <line x1="18" y1="42" x2="34" y2="42" stroke="#064e3b" stroke-width="2" />
  <line x1="66" y1="42" x2="82" y2="42" stroke="#064e3b" stroke-width="2" />
</svg>
